<?xml version="1.0" encoding="UTF-8" standalone="no"?>
<!-- Generator: Adobe Illustrator 27.5.0, SVG Export Plug-In . SVG Version: 6.00 Build 0)  -->

<svg
   version="1.1"
   x="0px"
   y="0px"
   viewBox="0 0 272.146 285.93893"
   xml:space="preserve"
   id="svg22"
   sodipodi:docname="21077292_6406676.svg"
   width="272.146"
   height="285.93893"
   inkscape:version="1.4 (86a8ad7, 2024-10-11)"
   xmlns:inkscape="http://www.inkscape.org/namespaces/inkscape"
   xmlns:sodipodi="http://sodipodi.sourceforge.net/DTD/sodipodi-0.dtd"
   xmlns="http://www.w3.org/2000/svg"
   xmlns:svg="http://www.w3.org/2000/svg"><defs
   id="defs22">
	
	
	
</defs><sodipodi:namedview
   id="namedview22"
   pagecolor="#ffffff"
   bordercolor="#666666"
   borderopacity="1.0"
   inkscape:showpageshadow="2"
   inkscape:pageopacity="0.0"
   inkscape:pagecheckerboard="0"
   inkscape:deskcolor="#d1d1d1"
   inkscape:zoom="0.854"
   inkscape:cx="136.41686"
   inkscape:cy="187.93911"
   inkscape:window-width="1366"
   inkscape:window-height="705"
   inkscape:window-x="1432"
   inkscape:window-y="-8"
   inkscape:window-maximized="1"
   inkscape:current-layer="svg22" />
<g
   id="BACKGROUND"
   transform="translate(-113.926,-61.8)">
</g>
<g
   id="g22"
   transform="translate(-113.926,-61.8)">
		<g
   id="g15">
			
				<linearGradient
   id="SVGID_1_"
   gradientUnits="userSpaceOnUse"
   x1="908.95563"
   y1="707.34369"
   x2="939.94818"
   y2="707.34369"
   gradientTransform="rotate(90,917.98685,136.17485)">
				<stop
   offset="0.0054"
   style="stop-color:#F49519"
   id="stop3" />
				<stop
   offset="1"
   style="stop-color:#FFBE2E"
   id="stop4" />
			</linearGradient>
			<path
   style="fill:url(#SVGID_1_)"
   d="m 330.791,141.757 c -2.816,1.625 -4.391,4.576 -4.391,7.609 0,1.488 0.379,2.998 1.177,4.379 2.423,4.199 7.791,5.637 11.988,3.214 l 23.279,-13.437 c 4.199,-2.423 5.64,-7.794 3.214,-11.988 -2.423,-4.199 -7.791,-5.637 -11.988,-3.214 z"
   id="path4" />
			
				<linearGradient
   id="SVGID_00000083775636294916711480000008564390216191810235_"
   gradientUnits="userSpaceOnUse"
   x1="843.61121"
   y1="808.88452"
   x2="888.0426"
   y2="808.88452"
   gradientTransform="rotate(90,917.98685,136.17485)">
				<stop
   offset="0.0054"
   style="stop-color:#F49519"
   id="stop5" />
				<stop
   offset="1"
   style="stop-color:#FFBE2E"
   id="stop6" />
			</linearGradient>
			<path
   style="fill:url(#SVGID_00000083775636294916711480000008564390216191810235_)"
   d="m 245.277,106.231 c 4.847,0 8.776,-3.929 8.776,-8.776 V 70.576 c 0,-4.847 -3.929,-8.776 -8.776,-8.776 -4.847,0 -8.777,3.93 -8.777,8.776 v 26.879 c 0.001,4.846 3.93,8.776 8.777,8.776 z"
   id="path6" />
			
				<linearGradient
   id="SVGID_00000059303498185300658360000018349901649445742262_"
   gradientUnits="userSpaceOnUse"
   x1="908.95227"
   y1="910.42529"
   x2="939.95062"
   y2="910.42529"
   gradientTransform="rotate(90,917.98685,136.17485)">
				<stop
   offset="0.0054"
   style="stop-color:#F49519"
   id="stop7" />
				<stop
   offset="1"
   style="stop-color:#FFBE2E"
   id="stop8" />
			</linearGradient>
			<path
   style="fill:url(#SVGID_00000059303498185300658360000018349901649445742262_)"
   d="m 162.978,153.749 c 2.422,-4.195 0.986,-9.564 -3.213,-11.989 l -23.279,-13.442 c -4.197,-2.423 -9.565,-0.986 -11.989,3.213 -0.798,1.382 -1.177,2.891 -1.177,4.38 0,3.032 1.575,5.983 4.39,7.609 l 23.279,13.442 c 4.197,2.423 9.565,0.985 11.989,-3.213 z"
   id="path8" />
			
				<linearGradient
   id="SVGID_00000021825037388195994720000015259807424786703022_"
   gradientUnits="userSpaceOnUse"
   x1="856.57867"
   y1="747.90887"
   x2="898.34631"
   y2="747.90887"
   gradientTransform="rotate(90,917.98685,136.17485)">
				<stop
   offset="0.0054"
   style="stop-color:#F49519"
   id="stop9" />
				<stop
   offset="1"
   style="stop-color:#FFBE2E"
   id="stop10" />
			</linearGradient>
			<path
   style="fill:url(#SVGID_00000021825037388195994720000015259807424786703022_)"
   d="m 306.865,112.145 13.978,-24.212 c 2.423,-4.198 0.986,-9.565 -3.213,-11.989 -4.198,-2.423 -9.565,-0.985 -11.989,3.213 l -13.978,24.212 c -0.798,1.382 -1.177,2.891 -1.177,4.38 0,3.033 1.575,5.983 4.39,7.609 4.197,2.422 9.565,0.984 11.989,-3.213 z"
   id="path10" />
			
				<linearGradient
   id="SVGID_00000123406037658669713070000016486595491012377504_"
   gradientUnits="userSpaceOnUse"
   x1="856.57867"
   y1="869.86023"
   x2="898.34631"
   y2="869.86023"
   gradientTransform="rotate(90,917.98685,136.17485)">
				<stop
   offset="0.0054"
   style="stop-color:#F49519"
   id="stop11" />
				<stop
   offset="1"
   style="stop-color:#FFBE2E"
   id="stop12" />
			</linearGradient>
			<path
   style="fill:url(#SVGID_00000123406037658669713070000016486595491012377504_)"
   d="M 198.891,103.367 184.91,79.155 c -2.424,-4.198 -7.791,-5.635 -11.989,-3.211 -2.815,1.625 -4.389,4.575 -4.389,7.608 0,1.49 0.379,2.999 1.178,4.381 l 13.981,24.212 c 2.424,4.198 7.791,5.635 11.989,3.211 4.199,-2.423 5.638,-7.792 3.211,-11.989 z"
   id="path12" />
			<g
   id="g14">
				
					<linearGradient
   id="SVGID_00000036944875987645576140000000683369085912834458_"
   gradientUnits="userSpaceOnUse"
   x1="167.17931"
   y1="161.7874"
   x2="323.37469"
   y2="161.7874">
					<stop
   offset="0.0054"
   style="stop-color:#F49519"
   id="stop13" />
					<stop
   offset="1"
   style="stop-color:#FFBE2E"
   id="stop14" />
				</linearGradient>
				<path
   style="fill:url(#SVGID_00000036944875987645576140000000683369085912834458_)"
   d="m 323.375,200.424 c -0.452,-42.754 -35.238,-77.274 -78.097,-77.274 -42.859,0 -77.646,33.335 -78.098,76.089 z"
   id="path14" />
			</g>
		</g>
		<g
   id="g18">
			
				<linearGradient
   id="SVGID_00000078039208476427411670000003855744460362438577_"
   gradientUnits="userSpaceOnUse"
   x1="223.73441"
   y1="249.2874"
   x2="276.2681"
   y2="249.2874">
				<stop
   offset="0"
   style="stop-color:#1D91D8"
   id="stop15" />
				<stop
   offset="1"
   style="stop-color:#1D91D8;stop-opacity:0.4"
   id="stop16" />
			</linearGradient>
			<path
   style="opacity:0.7;fill:url(#SVGID_00000078039208476427411670000003855744460362438577_)"
   d="m 234.388,257.633 c 1.207,2.092 3.439,3.38 5.854,3.38 h 19.518 c 2.415,0 4.647,-1.289 5.854,-3.38 l 9.761,-16.904 c 0.567,-0.982 0.857,-2.071 0.892,-3.166 h -14.676 l -5.734,9.93 h -11.713 l -5.734,-9.93 h -14.677 c 0.035,1.096 0.326,2.185 0.893,3.166 z"
   id="path16" />
			
				<linearGradient
   id="SVGID_00000181054792906877413980000011370103034692922532_"
   gradientUnits="userSpaceOnUse"
   x1="125.7285"
   y1="292.65079"
   x2="370.37839"
   y2="292.65079">
				<stop
   offset="0"
   style="stop-color:#1D91D8"
   id="stop17" />
				<stop
   offset="1"
   style="stop-color:#1D91D8;stop-opacity:0.4"
   id="stop18" />
			</linearGradient>
			<path
   style="opacity:0.7;fill:url(#SVGID_00000181054792906877413980000011370103034692922532_)"
   d="m 294.507,237.562 -22.192,38.431 h -44.626 l -22.187,-38.431 h -79.774 c 0.114,3.634 0.95,6.547 4.611,6.547 h 20.158 l -8.616,10.325 c -1.055,1.264 -1.57,2.8 -1.57,4.328 0,1.936 0.827,3.857 2.429,5.194 2.867,2.392 7.13,2.008 9.522,-0.859 l 15.846,-18.988 h 25.56 l 22.31,38.643 -12.778,22.134 -24.376,4.232 c -3.287,0.571 -5.605,3.426 -5.605,6.653 0,0.384 0.032,0.773 0.101,1.164 0.639,3.679 4.139,6.144 7.817,5.504 l 13.259,-2.302 -10.08,17.46 c -0.614,1.065 -0.906,2.227 -0.906,3.374 0,2.336 1.212,4.608 3.381,5.861 3.234,1.866 7.368,0.758 9.235,-2.475 l 10.081,-17.462 4.636,12.635 c 1.287,3.505 5.171,5.304 8.676,4.018 3.505,-1.286 5.301,-5.167 4.018,-8.676 l -8.524,-23.229 12.775,-22.129 h 44.625 l 12.783,22.138 -8.524,23.219 c -0.282,0.769 -0.416,1.556 -0.416,2.329 0,2.754 1.696,5.342 4.432,6.347 3.506,1.287 7.39,-0.511 8.676,-4.016 l 4.637,-12.63 10.08,17.457 c 1.866,3.233 6.001,4.341 9.234,2.474 3.233,-1.866 4.344,-6.001 2.474,-9.234 l -10.085,-17.466 13.266,2.3 c 3.678,0.638 7.178,-1.827 7.815,-5.506 0.643,-3.668 -1.827,-7.178 -5.506,-7.815 l -24.38,-4.227 -12.776,-22.127 22.317,-38.648 h 25.557 l 15.851,18.989 c 2.392,2.867 6.656,3.25 9.522,0.857 2.866,-2.392 3.25,-6.655 0.857,-9.522 l -8.618,-10.324 h 14.12 c 3.661,0 6.636,-2.913 6.75,-6.547 l -38.875,0.892 z"
   id="path18" />
		</g>
		
			<linearGradient
   id="SVGID_00000146493068283470731820000002371990965448302241_"
   gradientUnits="userSpaceOnUse"
   x1="103.5887"
   y1="199.5569"
   x2="396.2092"
   y2="199.5569">
			<stop
   offset="0.0335"
   style="stop-color:#C8C92F"
   id="stop19" />
			<stop
   offset="1"
   style="stop-color:#829B24"
   id="stop20" />
		</linearGradient>
		<path
   style="fill:url(#SVGID_00000146493068283470731820000002371990965448302241_)"
   d="m 113.926,212.177 c 1.499,-2.698 3.528,-5.083 5.64,-7.389 2.171,-2.231 4.484,-4.391 6.977,-6.301 2.451,-2.005 5.1,-3.7 7.774,-5.42 1.354,-0.811 2.739,-1.575 4.125,-2.36 1.385,-0.794 2.822,-1.424 4.245,-2.146 11.468,-5.543 23.952,-8.822 36.505,-10.485 3.137,-0.356 6.288,-0.671 9.451,-0.977 3.15,-0.147 6.31,-0.266 9.479,-0.374 3.171,-0.013 6.361,0.095 9.549,0.191 3.187,0.157 6.372,0.493 9.563,0.777 12.752,1.41 25.161,4.684 36.599,8.165 11.502,3.533 22.004,6.909 32.711,9.267 5.342,1.209 10.721,2.132 16.187,2.876 l 2.048,0.302 2.067,0.205 4.146,0.422 c 1.384,0.16 2.772,0.321 4.162,0.368 l 4.181,0.265 c 11.145,0.603 22.378,0.549 33.563,-0.989 l 4.209,-0.599 c 1.396,-0.237 2.765,-0.561 4.18,-0.798 1.424,-0.225 2.788,-0.592 4.184,-0.921 l 2.102,-0.499 2.074,-0.582 c 5.542,-1.604 11.098,-3.522 16.425,-6.504 -1.556,2.667 -3.643,5.011 -5.816,7.255 -1.111,1.094 -2.249,2.185 -3.448,3.188 -0.592,0.517 -1.193,1.028 -1.804,1.528 l -1.88,1.416 c -5.05,3.757 -10.579,6.97 -16.368,9.553 -1.432,0.723 -2.914,1.243 -4.386,1.844 -1.477,0.573 -2.96,1.187 -4.462,1.69 l -4.535,1.443 -2.283,0.714 -2.302,0.575 c -3.073,0.753 -6.175,1.562 -9.29,2.052 -3.118,0.527 -6.257,1.139 -9.393,1.4 -6.282,0.777 -12.609,1.073 -18.986,1.059 l -4.792,-0.114 -2.4,-0.073 -2.393,-0.2 c -3.191,-0.275 -6.407,-0.494 -9.561,-1.015 -12.7,-1.729 -24.994,-5.208 -36.169,-8.66 -11.256,-3.436 -21.771,-6.631 -32.527,-8.728 l -4.047,-0.708 c -1.352,-0.231 -2.693,-0.547 -4.059,-0.713 -2.731,-0.327 -5.453,-0.795 -8.208,-1.106 -2.765,-0.259 -5.539,-0.528 -8.322,-0.826 -2.771,-0.149 -5.553,-0.299 -8.35,-0.495 -2.783,-0.1 -5.557,-0.102 -8.362,-0.177 -1.406,-0.058 -2.778,0.057 -4.176,0.075 l -4.199,0.09 c -2.765,0.213 -5.577,0.346 -8.368,0.615 -2.76,0.359 -5.603,0.568 -8.359,1.086 -5.603,0.808 -11.135,2.116 -16.654,3.804 -5.502,1.741 -10.995,3.823 -16.247,6.934 z"
   id="path20" />
		
			<linearGradient
   id="SVGID_00000114068575088330624530000017466532271141253786_"
   gradientUnits="userSpaceOnUse"
   x1="103.5887"
   y1="237.5619"
   x2="396.2092"
   y2="237.5619">
			<stop
   offset="0.0335"
   style="stop-color:#C8C92F"
   id="stop21" />
			<stop
   offset="1"
   style="stop-color:#829B24"
   id="stop22" />
		</linearGradient>
		<path
   style="fill:url(#SVGID_00000114068575088330624530000017466532271141253786_)"
   d="m 113.926,250.182 c 1.499,-2.698 3.528,-5.084 5.64,-7.389 2.171,-2.231 4.484,-4.391 6.977,-6.301 2.451,-2.005 5.1,-3.7 7.774,-5.42 1.354,-0.811 2.739,-1.575 4.125,-2.36 1.385,-0.794 2.822,-1.424 4.245,-2.146 11.468,-5.543 23.952,-8.822 36.505,-10.485 3.137,-0.356 6.288,-0.671 9.451,-0.977 3.15,-0.147 6.31,-0.266 9.479,-0.374 3.171,-0.013 6.361,0.095 9.549,0.191 3.187,0.157 6.372,0.493 9.563,0.777 12.752,1.41 25.161,4.684 36.599,8.165 11.502,3.533 22.004,6.909 32.711,9.267 5.342,1.209 10.721,2.132 16.187,2.876 l 2.048,0.302 2.067,0.205 4.146,0.422 c 1.384,0.159 2.772,0.321 4.162,0.368 l 4.181,0.265 c 11.145,0.603 22.378,0.549 33.563,-0.989 l 4.209,-0.599 c 1.396,-0.237 2.765,-0.561 4.18,-0.798 1.424,-0.224 2.788,-0.592 4.184,-0.921 l 2.102,-0.499 2.074,-0.582 c 5.542,-1.604 11.098,-3.522 16.425,-6.504 -1.556,2.667 -3.643,5.01 -5.816,7.255 -1.111,1.094 -2.249,2.185 -3.448,3.189 -0.592,0.518 -1.193,1.027 -1.804,1.528 l -1.88,1.416 c -5.05,3.757 -10.579,6.97 -16.368,9.553 -1.432,0.723 -2.914,1.243 -4.386,1.844 -1.477,0.573 -2.96,1.187 -4.462,1.69 l -4.535,1.443 -2.283,0.714 -2.302,0.575 c -3.073,0.753 -6.175,1.562 -9.29,2.052 -3.118,0.527 -6.257,1.139 -9.393,1.4 -6.282,0.777 -12.609,1.073 -18.986,1.059 l -4.792,-0.114 -2.4,-0.073 -2.393,-0.2 c -3.191,-0.275 -6.407,-0.494 -9.561,-1.015 -12.7,-1.729 -24.994,-5.208 -36.169,-8.659 -11.256,-3.437 -21.771,-6.631 -32.527,-8.729 l -4.047,-0.708 c -1.352,-0.231 -2.693,-0.547 -4.059,-0.713 -2.731,-0.327 -5.453,-0.795 -8.208,-1.106 -2.765,-0.259 -5.539,-0.528 -8.322,-0.826 -2.771,-0.149 -5.553,-0.3 -8.35,-0.495 -2.783,-0.1 -5.557,-0.102 -8.362,-0.177 -1.406,-0.058 -2.778,0.056 -4.176,0.075 l -4.199,0.09 c -2.765,0.212 -5.577,0.346 -8.368,0.615 -2.76,0.359 -5.603,0.568 -8.359,1.086 -5.603,0.808 -11.135,2.116 -16.654,3.804 -5.502,1.74 -10.995,3.822 -16.247,6.933 z"
   id="path22" />
	</g>
</svg>
