<?xml version="1.0" encoding="UTF-8" standalone="no"?>
<!-- Uploaded to: SVG Repo, www.svgrepo.com, Generator: SVG Repo Mixer Tools -->

<svg
   height="773.33331"
   width="800"
   version="1.1"
   id="Capa_1"
   viewBox="0 0 60.000001 57.999998"
   xml:space="preserve"
   sodipodi:docname="sunset.svg"
   inkscape:version="1.4 (86a8ad7, 2024-10-11)"
   xmlns:inkscape="http://www.inkscape.org/namespaces/inkscape"
   xmlns:sodipodi="http://sodipodi.sourceforge.net/DTD/sodipodi-0.dtd"
   xmlns="http://www.w3.org/2000/svg"
   xmlns:svg="http://www.w3.org/2000/svg"><defs
   id="defs15">
	
	
	
	
	
	
	
	
	

	
	
	
	
</defs><sodipodi:namedview
   id="namedview15"
   pagecolor="#ffffff"
   bordercolor="#666666"
   borderopacity="1.0"
   inkscape:showpageshadow="2"
   inkscape:pageopacity="0.0"
   inkscape:pagecheckerboard="0"
   inkscape:deskcolor="#d1d1d1"
   inkscape:zoom="0.46375"
   inkscape:cx="400"
   inkscape:cy="359.02965"
   inkscape:window-width="1366"
   inkscape:window-height="705"
   inkscape:window-x="1432"
   inkscape:window-y="-8"
   inkscape:window-maximized="1"
   inkscape:current-layer="Capa_1" />
<path
   style="fill:#f0b429;fill-opacity:1"
   d="m 30,0 c -0.552,0 -1,0.448 -1,1 v 6 c 0,0.552 0.448,1 1,1 0.552,0 1,-0.448 1,-1 V 1 C 31,0.448 30.552,0 30,0 Z"
   id="path1" /><path
   style="fill:#f0b429;fill-opacity:1"
   d="m 59,29 h -6 c -0.552,0 -1,0.448 -1,1 0,0.552 0.448,1 1,1 h 6 c 0.552,0 1,-0.448 1,-1 0,-0.552 -0.448,-1 -1,-1 z"
   id="path2" /><path
   style="fill:#f0b429;fill-opacity:1"
   d="M 7,29 H 1 c -0.552,0 -1,0.448 -1,1 0,0.552 0.448,1 1,1 H 7 C 7.552,31 8,30.552 8,30 8,29.448 7.552,29 7,29 Z"
   id="path3" /><path
   style="fill:#f0b429;fill-opacity:1"
   d="m 52.707,7.293 c -0.391,-0.391 -1.023,-0.391 -1.414,0 l -5.736,5.736 c -0.391,0.391 -0.391,1.023 0,1.414 0.195,0.195 0.451,0.293 0.707,0.293 0.256,0 0.512,-0.098 0.707,-0.293 l 5.736,-5.736 c 0.391,-0.391 0.391,-1.023 0,-1.414 z"
   id="path4" /><path
   style="fill:#f0b429;fill-opacity:1"
   d="m 8.707,7.293 c -0.391,-0.391 -1.023,-0.391 -1.414,0 -0.391,0.391 -0.391,1.023 0,1.414 l 5.736,5.736 c 0.195,0.195 0.451,0.293 0.707,0.293 0.256,0 0.512,-0.098 0.707,-0.293 0.391,-0.391 0.391,-1.023 0,-1.414 z"
   id="path5" /><path
   style="fill:#f0b429;fill-opacity:1"
   d="M 54.854,19.45 C 54.638,18.942 54.05,18.704 53.543,18.92 l -2.762,1.172 c -0.508,0.216 -0.746,0.803 -0.53,1.311 0.162,0.381 0.532,0.61 0.921,0.61 0.13,0 0.263,-0.026 0.39,-0.08 l 2.762,-1.172 c 0.508,-0.216 0.745,-0.803 0.53,-1.311 z"
   id="path6" /><path
   style="fill:#f0b429;fill-opacity:1"
   d="M 9.049,20.457 6.267,19.333 c -0.512,-0.207 -1.095,0.04 -1.302,0.553 -0.207,0.512 0.041,1.095 0.553,1.302 L 8.3,22.312 c 0.123,0.049 0.25,0.073 0.374,0.073 0.396,0 0.771,-0.236 0.928,-0.626 0.207,-0.512 -0.04,-1.095 -0.553,-1.302 z"
   id="path7" /><path
   style="fill:#f0b429;fill-opacity:1"
   d="M 20.761,5.676 C 20.545,5.167 19.957,4.929 19.45,5.146 18.942,5.362 18.704,5.949 18.92,6.457 l 1.172,2.762 c 0.162,0.381 0.532,0.61 0.921,0.61 0.13,0 0.263,-0.026 0.39,-0.08 0.508,-0.216 0.746,-0.803 0.53,-1.311 z"
   id="path8" /><path
   style="fill:#f0b429;fill-opacity:1"
   d="M 40.114,4.966 C 39.603,4.759 39.019,5.007 38.812,5.519 L 37.688,8.3 c -0.207,0.512 0.041,1.095 0.553,1.302 0.123,0.049 0.25,0.073 0.374,0.073 0.396,0 0.771,-0.236 0.928,-0.626 L 40.667,6.267 C 40.874,5.756 40.626,5.173 40.114,4.966 Z"
   id="path9" />
<path
   style="fill:#f0b429;fill-opacity:1"
   d="M 48.325,38 C 49.396,35.549 50,32.846 50,30 50,18.954 41.046,10 30,10 18.954,10 10,18.954 10,30 c 0,2.846 0.604,5.549 1.675,8 z"
   id="path10" />
<path
   style="fill:#ede21b"
   d="M 42.673,38 C 44.139,35.683 45,32.945 45,30 45,21.716 38.284,15 30,15 c -8.284,0 -15,6.716 -15,15 0,2.945 0.861,5.683 2.327,8 z"
   id="path11" />
<path
   style="fill:#f29c1f"
   d="M 59,37 H 1 c -0.552,0 -1,0.448 -1,1 0,0.552 0.448,1 1,1 h 58 c 0.552,0 1,-0.448 1,-1 0,-0.552 -0.448,-1 -1,-1 z"
   id="path12" /><path
   style="fill:#f29c1f"
   d="M 54,42 H 6 c -0.552,0 -1,0.448 -1,1 0,0.552 0.448,1 1,1 h 48 c 0.552,0 1,-0.448 1,-1 0,-0.552 -0.448,-1 -1,-1 z"
   id="path13" /><path
   style="fill:#f29c1f"
   d="M 49,47 H 11 c -0.552,0 -1,0.448 -1,1 0,0.552 0.448,1 1,1 h 38 c 0.552,0 1,-0.448 1,-1 0,-0.552 -0.448,-1 -1,-1 z"
   id="path14" /><path
   style="fill:#f29c1f"
   d="M 45,52 H 15 c -0.552,0 -1,0.448 -1,1 0,0.552 0.448,1 1,1 h 30 c 0.552,0 1,-0.448 1,-1 0,-0.552 -0.448,-1 -1,-1 z"
   id="path15" />
<polygon
   style="fill:#0b111d;fill-opacity:1"
   points="22.293,29.707 30,37.414 37.707,29.707 36.293,28.293 31,33.586 31,22 29,22 29,33.586 23.707,28.293 "
   id="polygon15"
   transform="translate(0,-3)" />
</svg>
